# xmcd
#
# Track frame offsets:
#	182
#	12562
#	26282
#	40400
#	58310
#	79082
#	93627
#	102980
#	122782
#	145457
#	175020
#	185180
#	194867
#	208462
#	216272
#	238762
#
# Disc length: 3365 seconds
#
# Revision: 1
# Processed by: cddbd v1.5.1PL0 Copyright (c) Steve Scherf et al.
# Submitted via: audiograbber 1.83.01
#
DISCID=010d2310
DTITLE=Eric Comstock - Young Man of Manhattan
DYEAR=1997
DGENRE=Cabaret
TTITLE0=Far Away From Home
TTITLE1=It's After Hours
TTITLE2=Don't Let Good Things Get Away
TTITLE3=A Hundred Years From Today
TTITLE4=Lonely Town
TTITLE5=S'Wonderful
TTITLE6=A Rainy Day
TTITLE7=About a Quarter to Nine
TTITLE8=Medley: Once Upon a Time/Young and Foolish
TTITLE9=The Way You Look Tonight
TTITLE10=Say, Young Man of Manhattan
TTITLE11=Long Before I Knew You
TTITLE12=Beyond the Sea
TTITLE13=Pillar to Post
TTITLE14=Ev'ry Time We Say Goodbye
TTITLE15=Waiting at the End of the Road
EXTD=
EXTT0=
EXTT1=
EXTT2=
EXTT3=
EXTT4=
EXTT5=
EXTT6=
EXTT7=
EXTT8=
EXTT9=
EXTT10=
EXTT11=
EXTT12=
EXTT13=
EXTT14=
EXTT15=
PLAYORDER=
